<?xml version="1.0" encoding="iso-8859-1"?>
<!-- Generator: Adobe Illustrator 19.0.0, SVG Export Plug-In . SVG Version: 6.00 Build 0)  -->
<svg version="1.1" id="Layer_1" xmlns="http://www.w3.org/2000/svg" xmlns:xlink="http://www.w3.org/1999/xlink" x="0px" y="0px"
	 viewBox="0 0 511.999 511.999" style="enable-background:new 0 0 511.999 511.999;" xml:space="preserve">
<path style="fill:#B9D8F4;" d="M280.419,7.915c-5.522-1.269-11.193,1.433-13.677,6.525L99.995,356.454
	c-1.839,3.773-1.605,8.226,0.619,11.785c2.223,3.559,6.125,5.721,10.321,5.721h166.747c6.722,0,12.171-5.45,12.171-12.171V19.775
	C289.853,14.108,285.941,9.191,280.419,7.915z"/>
<g>
	<path style="fill:#96C8EF;" d="M280.419,7.915c-5.522-1.269-11.193,1.433-13.677,6.525l-42.264,86.688V373.96
		c0,1.031,53.204,0,53.204,0c6.722,0,12.171-5.449,12.171-12.171V19.775C289.853,14.108,285.941,9.191,280.419,7.915z"/>
	<path style="fill:#96C8EF;" d="M277.681,373.96c6.722,0,12.171-5.449,12.171-12.171V19.775c0-5.667-3.911-10.585-9.435-11.86
		c-5.521-1.269-11.193,1.433-13.677,6.525l-19.492,39.982c7.73,18.871,19.832,54.032,22.961,95.304
		c6.192,81.706-23.082,145.951-89.494,196.409c-8.904,6.764-14.757,16.871-16.362,27.824L277.681,373.96L277.681,373.96z"/>
</g>
<path style="fill:#D1E7F8;" d="M423.701,244.614c-3.483-45.094-14.793-86.406-33.617-122.792
	C366.479,76.195,331.037,38.389,284.741,9.453c-4.67-2.916-10.719-2.338-14.748,1.416c-4.029,3.753-5.036,9.746-2.454,14.611
	c0.277,0.523,27.774,53.017,32.998,121.948c6.936,91.523-27.187,166.526-101.421,222.925c-3.029,2.302-4.809,5.887-4.809,9.691
	c0,3.965,2.578,11.635,12.339,12.284c0.744,0.05,191.361-0.108,192.217-0.113c5.3-0.033,9.969-3.494,11.544-8.554
	C411.194,381.136,429.594,320.918,423.701,244.614z"/>
<g>
	<path style="fill:#B9D8F4;" d="M385.398,242.839c-0.529-6.878-1.471-13.729-2.509-20.383c-0.647-4.15,2.193-8.038,6.342-8.684
		c4.154-0.653,8.038,2.193,8.685,6.342c1.087,6.972,1.971,14.154,2.627,21.344c0.382,4.182-2.699,7.882-6.881,8.263
		C393.426,249.741,386.029,251.028,385.398,242.839z"/>
	<path style="fill:#B9D8F4;" d="M387.386,356.642c-6.427,0-8.267-4.912-7.476-9.037c3.396-17.716,7.348-45.624,6.886-77.965
		c-0.061-4.199,3.295-7.653,7.494-7.711c0.036-0.001,0.074-0.001,0.111-0.001c4.149,0,7.541,3.334,7.601,7.495
		c0.481,33.627-3.627,62.633-7.157,81.046C394.148,354.109,390.961,356.642,387.386,356.642z"/>
	<path style="fill:#B9D8F4;" d="M358.904,172.988c-5.224-68.931-32.721-121.425-32.998-121.948
		c-1.885-3.552-1.849-7.701-0.129-11.145c-12.55-11.03-26.236-21.191-41.036-30.441c-4.67-2.916-10.719-2.338-14.748,1.416
		c-4.029,3.753-5.036,9.746-2.454,14.611c0.277,0.523,27.774,53.017,32.998,121.948c6.936,91.523-27.187,166.526-101.421,222.925
		c-3.029,2.302-4.809,5.887-4.809,9.691c0,3.965,2.578,11.635,12.339,12.284c0.264,0.017,24.394,0.009,55.468-0.009
		C333.13,336.342,365.694,262.583,358.904,172.988z"/>
</g>
<path style="fill:#B39A7C;" d="M474.006,426.836c-0.228-4.991-5.014-8.936-10.84-8.936H78.047c-3.811,0-7.341,1.713-9.302,4.516
	l-29.29,41.854c-1.526,2.179-1.944,4.799-1.159,7.25c0.786,2.451,2.707,4.519,5.318,5.724l56.412,26.042
	c1.582,0.729,3.349,1.112,5.143,1.112h315.69c1.789,0,3.553-0.379,5.129-1.105C428.047,502.344,476.414,479.475,474.006,426.836z"/>
<path style="fill:#957856;" d="M174.4,477.243c-2.61-1.205-4.532-3.274-5.318-5.724c-0.786-2.452-0.367-5.071,1.159-7.25
	l29.29-41.854c1.961-2.802,5.491-4.516,9.302-4.516H78.046c-3.811,0-7.341,1.713-9.302,4.516l-29.29,41.854
	c-1.526,2.179-1.944,4.799-1.159,7.25c0.786,2.451,2.707,4.519,5.318,5.724l56.412,26.042c1.582,0.729,3.348,1.111,5.143,1.111
	h130.788c-1.796,0-3.563-0.382-5.143-1.111L174.4,477.243z"/>
<path d="M129.715,295.494c4.284,2.256,8.85-0.8,10.167-3.502l7.026-14.41c1.84-3.776,0.273-8.327-3.503-10.167
	c-3.775-1.842-8.327-0.274-10.167,3.502l-7.026,14.41C124.372,289.102,125.999,293.537,129.715,295.494z"/>
<path d="M481.602,426.487c-0.409-8.942-8.272-15.961-17.988-16.173v-10.372h3.827c4.199,0,7.604-3.404,7.604-7.604
	s-3.405-7.604-7.604-7.604h-49.417c2.724-9.239,18.882-67.873,13.257-140.705c-3.561-46.113-15.15-88.405-34.444-125.701
	c-24.24-46.856-60.6-85.656-108.071-115.325C285.622,1.038,281.999,0,278.292,0c-11.139,0-17.847,10.002-18.386,11.108
	L144.1,248.638c-1.84,3.776-0.345,8.484,3.503,10.167c4.815,2.107,8.85-0.8,10.167-3.502L264.409,36.576
	c4.262,9.447,11.575,27.232,17.84,50.313v158.942c-14.912,45.77-44.22,85.409-87.732,118.468c-0.823,0.626-1.586,1.317-2.292,2.056
	h-81.288c-1.585,0-3.033-0.802-3.873-2.147c-0.84-1.343-0.927-2.997-0.232-4.421l22.621-46.398c1.84-3.776,0.273-8.327-3.503-10.167
	c-3.774-1.842-8.327-0.275-10.167,3.502l-22.622,46.4c-3.006,6.17-2.63,13.328,1.006,19.145c3.637,5.821,9.906,9.296,16.77,9.296
	h75.838c0.083,1.063,0.262,2.122,0.519,3.171H80.603c-4.199,0-7.604,3.404-7.604,7.604s3.405,7.604,7.604,7.604h3.827v10.352h-6.383
	c-6.325,0-12.132,2.902-15.532,7.761l-29.29,41.851c-2.893,4.132-3.683,9.21-2.171,13.93c1.429,4.459,4.843,8.216,9.371,10.309
	l56.416,26.044c2.568,1.183,5.447,1.809,8.326,1.809h315.69c2.875,0,5.748-0.623,8.306-1.8
	C431.413,509.165,484.242,484.199,481.602,426.487z M448.406,410.294h-46.638v-10.352h46.638V410.294z M204.573,410.294h-43.089
	v-10.352h43.089V410.294z M219.781,399.943h46.638v10.352h-46.638V399.943z M281.626,399.943h46.638v10.352h-46.638V399.943z
	 M343.472,399.943h43.089v10.352h-43.089V399.943z M206.969,384.728c-4.689-0.393-5.057-3.676-5.057-4.683
	c0-1.418,0.675-2.778,1.805-3.637c76.42-58.061,111.546-135.294,104.403-229.553c-5.332-70.341-33.576-124.394-33.864-124.939
	c-0.967-1.822-0.589-4.076,0.922-5.482c1.471-1.371,3.823-1.6,5.533-0.53c45.124,28.202,79.651,65.015,102.62,109.415
	c18.354,35.477,29.386,75.812,32.789,119.883c5.782,74.87-12.205,133.732-12.973,136.202c-0.593,1.908-2.334,3.198-4.317,3.21
	C398.476,384.612,207.8,384.732,206.969,384.728z M99.638,399.943h46.638v10.352H99.638V399.943z M74.975,426.774
	c0.429-0.612,1.574-1.272,3.072-1.272h385.119c1.965,0,3.217,1.088,3.244,1.68c0.625,13.646-2.543,25.08-7.418,34.475H50.562
	L74.975,426.774z M422.806,496.385c-0.58,0.267-1.254,0.408-1.95,0.408H105.168c-0.698,0-1.375-0.143-1.957-0.411l-42.274-19.516
	h387.468C436.837,489.77,423.809,495.923,422.806,496.385z"/>
<g>
</g>
<g>
</g>
<g>
</g>
<g>
</g>
<g>
</g>
<g>
</g>
<g>
</g>
<g>
</g>
<g>
</g>
<g>
</g>
<g>
</g>
<g>
</g>
<g>
</g>
<g>
</g>
<g>
</g>
</svg>
